<?xml version="1.0" encoding="UTF-8" standalone="no"?>
<!DOCTYPE svg PUBLIC "-//W3C//DTD SVG 1.1//EN"
 "http://www.w3.org/Graphics/SVG/1.1/DTD/svg11.dtd">
<!-- Generated by graphviz version 2.43.0 (0)
 -->
<!-- Title: G Pages: 1 -->
<svg width="1384pt" height="959pt"
 viewBox="0.00 0.00 1384.00 959.00" xmlns="http://www.w3.org/2000/svg" xmlns:xlink="http://www.w3.org/1999/xlink">
<g id="graph0" class="graph" transform="scale(1 1) rotate(0) translate(4 955)">
<title>G</title>
<polygon fill="white" stroke="transparent" points="-4,4 -4,-955 1380,-955 1380,4 -4,4"/>
<g id="clust1" class="cluster">
<title>cluster_api</title>
<path fill="none" stroke="#90a4c3" stroke-width="1.6" d="M184.5,-8C184.5,-8 1224.5,-8 1224.5,-8 1230.5,-8 1236.5,-14 1236.5,-20 1236.5,-20 1236.5,-931 1236.5,-931 1236.5,-937 1230.5,-943 1224.5,-943 1224.5,-943 184.5,-943 184.5,-943 178.5,-943 172.5,-937 172.5,-931 172.5,-931 172.5,-20 172.5,-20 172.5,-14 178.5,-8 184.5,-8"/>
<text text-anchor="middle" x="704.5" y="-928.6" font-family="Inter,Arial" font-size="13.00">FlowSense API</text>
</g>
<g id="clust7" class="cluster">
<title>cluster_L3</title>
<path fill="none" stroke="#b9c4d6" stroke-dasharray="5,2" d="M638.5,-266C638.5,-266 788.5,-266 788.5,-266 794.5,-266 800.5,-272 800.5,-278 800.5,-278 800.5,-665 800.5,-665 800.5,-671 794.5,-677 788.5,-677 788.5,-677 638.5,-677 638.5,-677 632.5,-677 626.5,-671 626.5,-665 626.5,-665 626.5,-278 626.5,-278 626.5,-272 632.5,-266 638.5,-266"/>
<text text-anchor="middle" x="713.5" y="-662.6" font-family="Inter,Arial" font-size="13.00">Orchestration Layer</text>
</g>
<g id="clust8" class="cluster">
<title>cluster_ctrl</title>
<path fill="none" stroke="#d6dde9" d="M646.5,-385C646.5,-385 780.5,-385 780.5,-385 786.5,-385 792.5,-391 792.5,-397 792.5,-397 792.5,-447 792.5,-447 792.5,-453 786.5,-459 780.5,-459 780.5,-459 646.5,-459 646.5,-459 640.5,-459 634.5,-453 634.5,-447 634.5,-447 634.5,-397 634.5,-397 634.5,-391 640.5,-385 646.5,-385"/>
<text text-anchor="middle" x="713.5" y="-444.6" font-family="Inter,Arial" font-size="13.00">Controller</text>
</g>
<g id="clust9" class="cluster">
<title>cluster_cb</title>
<path fill="none" stroke="#d6dde9" d="M672.5,-274C672.5,-274 754.5,-274 754.5,-274 760.5,-274 766.5,-280 766.5,-286 766.5,-286 766.5,-336 766.5,-336 766.5,-342 760.5,-348 754.5,-348 754.5,-348 672.5,-348 672.5,-348 666.5,-348 660.5,-342 660.5,-336 660.5,-336 660.5,-286 660.5,-286 660.5,-280 666.5,-274 672.5,-274"/>
<text text-anchor="middle" x="713.5" y="-333.6" font-family="Inter,Arial" font-size="13.00">Circuit Breaker</text>
</g>
<g id="clust2" class="cluster">
<title>cluster_L1</title>
<path fill="none" stroke="#b9c4d6" stroke-dasharray="5,2" d="M192.5,-613C192.5,-613 356.5,-613 356.5,-613 362.5,-613 368.5,-619 368.5,-625 368.5,-625 368.5,-901 368.5,-901 368.5,-907 362.5,-913 356.5,-913 356.5,-913 192.5,-913 192.5,-913 186.5,-913 180.5,-907 180.5,-901 180.5,-901 180.5,-625 180.5,-625 180.5,-619 186.5,-613 192.5,-613"/>
<text text-anchor="middle" x="274.5" y="-898.6" font-family="Inter,Arial" font-size="13.00">Interface Layer (Express)</text>
</g>
<g id="clust3" class="cluster">
<title>cluster_http</title>
<path fill="none" stroke="#d6dde9" d="M200.5,-732C200.5,-732 348.5,-732 348.5,-732 354.5,-732 360.5,-738 360.5,-744 360.5,-744 360.5,-794 360.5,-794 360.5,-800 354.5,-806 348.5,-806 348.5,-806 200.5,-806 200.5,-806 194.5,-806 188.5,-800 188.5,-794 188.5,-794 188.5,-744 188.5,-744 188.5,-738 194.5,-732 200.5,-732"/>
<text text-anchor="middle" x="274.5" y="-791.6" font-family="Inter,Arial" font-size="13.00">HTTP layer</text>
</g>
<g id="clust4" class="cluster">
<title>cluster_routes</title>
<path fill="none" stroke="#d6dde9" d="M209.5,-621C209.5,-621 339.5,-621 339.5,-621 345.5,-621 351.5,-627 351.5,-633 351.5,-633 351.5,-683 351.5,-683 351.5,-689 345.5,-695 339.5,-695 339.5,-695 209.5,-695 209.5,-695 203.5,-695 197.5,-689 197.5,-683 197.5,-683 197.5,-633 197.5,-633 197.5,-627 203.5,-621 209.5,-621"/>
<text text-anchor="middle" x="274.5" y="-680.6" font-family="Inter,Arial" font-size="13.00">Routes</text>
</g>
<g id="clust5" class="cluster">
<title>cluster_L2</title>
<path fill="none" stroke="#b9c4d6" stroke-dasharray="5,2" d="M388.5,-502C388.5,-502 606.5,-502 606.5,-502 612.5,-502 618.5,-508 618.5,-514 618.5,-514 618.5,-776 618.5,-776 618.5,-782 612.5,-788 606.5,-788 606.5,-788 388.5,-788 388.5,-788 382.5,-788 376.5,-782 376.5,-776 376.5,-776 376.5,-514 376.5,-514 376.5,-508 382.5,-502 388.5,-502"/>
<text text-anchor="middle" x="497.5" y="-773.6" font-family="Inter,Arial" font-size="13.00">Security Layer (XSUAA/JWT)</text>
</g>
<g id="clust6" class="cluster">
<title>cluster_auth</title>
<path fill="none" stroke="#d6dde9" d="M396.5,-510C396.5,-510 598.5,-510 598.5,-510 604.5,-510 610.5,-516 610.5,-522 610.5,-522 610.5,-572 610.5,-572 610.5,-578 604.5,-584 598.5,-584 598.5,-584 396.5,-584 396.5,-584 390.5,-584 384.5,-578 384.5,-572 384.5,-572 384.5,-522 384.5,-522 384.5,-516 390.5,-510 396.5,-510"/>
<text text-anchor="middle" x="497.5" y="-569.6" font-family="Inter,Arial" font-size="13.00">Auth</text>
</g>
<g id="clust10" class="cluster">
<title>cluster_L4</title>
<path fill="none" stroke="#b9c4d6" stroke-dasharray="5,2" d="M820.5,-16C820.5,-16 1054.5,-16 1054.5,-16 1060.5,-16 1066.5,-22 1066.5,-28 1066.5,-28 1066.5,-554 1066.5,-554 1066.5,-560 1060.5,-566 1054.5,-566 1054.5,-566 820.5,-566 820.5,-566 814.5,-566 808.5,-560 808.5,-554 808.5,-554 808.5,-28 808.5,-28 808.5,-22 814.5,-16 820.5,-16"/>
<text text-anchor="middle" x="937.5" y="-551.6" font-family="Inter,Arial" font-size="13.00">Analysis Layer (OpenAI Responses API)</text>
</g>
<g id="clust11" class="cluster">
<title>cluster_prompt</title>
<path fill="none" stroke="#d6dde9" d="M828.5,-274C828.5,-274 884.5,-274 884.5,-274 890.5,-274 896.5,-280 896.5,-286 896.5,-286 896.5,-336 896.5,-336 896.5,-342 890.5,-348 884.5,-348 884.5,-348 828.5,-348 828.5,-348 822.5,-348 816.5,-342 816.5,-336 816.5,-336 816.5,-286 816.5,-286 816.5,-280 822.5,-274 828.5,-274"/>
<text text-anchor="middle" x="856.5" y="-333.6" font-family="Inter,Arial" font-size="13.00">Prompt</text>
</g>
<g id="clust12" class="cluster">
<title>cluster_oai</title>
<path fill="none" stroke="#d6dde9" d="M837.5,-149C837.5,-149 939.5,-149 939.5,-149 945.5,-149 951.5,-155 951.5,-161 951.5,-161 951.5,-211 951.5,-211 951.5,-217 945.5,-223 939.5,-223 939.5,-223 837.5,-223 837.5,-223 831.5,-223 825.5,-217 825.5,-211 825.5,-211 825.5,-161 825.5,-161 825.5,-155 831.5,-149 837.5,-149"/>
<text text-anchor="middle" x="888.5" y="-208.6" font-family="Inter,Arial" font-size="13.00">OpenAI Client</text>
</g>
<g id="clust13" class="cluster">
<title>cluster_fbk</title>
<path fill="none" stroke="#d6dde9" d="M830.5,-24C830.5,-24 926.5,-24 926.5,-24 932.5,-24 938.5,-30 938.5,-36 938.5,-36 938.5,-86 938.5,-86 938.5,-92 932.5,-98 926.5,-98 926.5,-98 830.5,-98 830.5,-98 824.5,-98 818.5,-92 818.5,-86 818.5,-86 818.5,-36 818.5,-36 818.5,-30 824.5,-24 830.5,-24"/>
<text text-anchor="middle" x="878.5" y="-83.6" font-family="Inter,Arial" font-size="13.00">Fallback</text>
</g>
<g id="clust14" class="cluster">
<title>cluster_L5</title>
<path fill="none" stroke="#b9c4d6" stroke-dasharray="5,2" d="M1086.5,-16C1086.5,-16 1206.5,-16 1206.5,-16 1212.5,-16 1218.5,-22 1218.5,-28 1218.5,-28 1218.5,-429 1218.5,-429 1218.5,-435 1212.5,-441 1206.5,-441 1206.5,-441 1086.5,-441 1086.5,-441 1080.5,-441 1074.5,-435 1074.5,-429 1074.5,-429 1074.5,-28 1074.5,-28 1074.5,-22 1080.5,-16 1086.5,-16"/>
<text text-anchor="middle" x="1146.5" y="-426.6" font-family="Inter,Arial" font-size="13.00">Governance Layer</text>
</g>
<g id="clust15" class="cluster">
<title>cluster_ajv</title>
<path fill="none" stroke="#d6dde9" d="M1094.5,-24C1094.5,-24 1198.5,-24 1198.5,-24 1204.5,-24 1210.5,-30 1210.5,-36 1210.5,-36 1210.5,-86 1210.5,-86 1210.5,-92 1204.5,-98 1198.5,-98 1198.5,-98 1094.5,-98 1094.5,-98 1088.5,-98 1082.5,-92 1082.5,-86 1082.5,-86 1082.5,-36 1082.5,-36 1082.5,-30 1088.5,-24 1094.5,-24"/>
<text text-anchor="middle" x="1146.5" y="-83.6" font-family="Inter,Arial" font-size="13.00">Validation</text>
</g>
<!-- CPI -->
<g id="node1" class="node">
<title>CPI</title>
<path fill="#efe7d1" stroke="#efe7d1" stroke-width="1.2" d="M55,-901C55,-901 12,-901 12,-901 6,-901 0,-895 0,-889 0,-889 0,-877 0,-877 0,-871 6,-865 12,-865 12,-865 55,-865 55,-865 61,-865 67,-871 67,-877 67,-877 67,-889 67,-889 67,-895 61,-901 55,-901"/>
<text text-anchor="middle" x="33.5" y="-880.2" font-family="Inter,Arial" font-size="11.00">CPI Flows</text>
</g>
<!-- HTTP -->
<g id="node2" class="node">
<title>HTTP</title>
<path fill="white" stroke="white" d="M340,-776C340,-776 209,-776 209,-776 203,-776 197,-770 197,-764 197,-764 197,-752 197,-752 197,-746 203,-740 209,-740 209,-740 340,-740 340,-740 346,-740 352,-746 352,-752 352,-752 352,-764 352,-764 352,-770 346,-776 340,-776"/>
<text text-anchor="middle" x="274.5" y="-755.2" font-family="Inter,Arial" font-size="11.00">Express · Helmet · RateLimit</text>
</g>
<!-- CPI&#45;&gt;HTTP -->
<g id="edge9" class="edge">
<title>CPI&#45;&gt;HTTP</title>
<path fill="none" stroke="black" stroke-width="1.5" d="M33.5,-864.82C33.5,-830.16 33.5,-758 33.5,-758 33.5,-758 147.4,-758 180.19,-758"/>
<polygon fill="black" stroke="black" stroke-width="1.5" points="180.5,-760.8 188.5,-758 180.5,-755.2 180.5,-760.8"/>
<text text-anchor="middle" x="74.5" y="-817.8" font-family="Inter,Arial" font-size="14.00">Fehlerkontext</text>
</g>
<!-- ROUTES -->
<g id="node3" class="node">
<title>ROUTES</title>
<path fill="white" stroke="white" d="M331.5,-665C331.5,-665 217.5,-665 217.5,-665 211.5,-665 205.5,-659 205.5,-653 205.5,-653 205.5,-641 205.5,-641 205.5,-635 211.5,-629 217.5,-629 217.5,-629 331.5,-629 331.5,-629 337.5,-629 343.5,-635 343.5,-641 343.5,-641 343.5,-653 343.5,-653 343.5,-659 337.5,-665 331.5,-665"/>
<text text-anchor="middle" x="274.5" y="-650.2" font-family="Inter,Arial" font-size="11.00">/ · /health · /analyze&#45;error</text>
<text text-anchor="middle" x="274.5" y="-638.2" font-family="Inter,Arial" font-size="11.00">/cb&#45;state (dev)</text>
</g>
<!-- HTTP&#45;&gt;ROUTES -->
<!-- HTTP&#45;&gt;ROUTES -->
<g id="edge10" class="edge">
<title>HTTP&#45;&gt;ROUTES</title>
<path fill="none" stroke="black" stroke-width="1.5" d="M297.5,-732C297.5,-724.93 297.5,-713.97 297.5,-703.43"/>
<polygon fill="black" stroke="black" stroke-width="1.5" points="300.3,-703 297.5,-695 294.7,-703 300.3,-703"/>
</g>
<!-- AUTH -->
<g id="node5" class="node">
<title>AUTH</title>
<path fill="white" stroke="white" d="M590,-554C590,-554 405,-554 405,-554 399,-554 393,-548 393,-542 393,-542 393,-530 393,-530 393,-524 399,-518 405,-518 405,-518 590,-518 590,-518 596,-518 602,-524 602,-530 602,-530 602,-542 602,-542 602,-548 596,-554 590,-554"/>
<text text-anchor="middle" x="497.5" y="-533.2" font-family="Inter,Arial" font-size="11.00">Passport JWT · Scope · Allow&#45;List (opt.)</text>
</g>
<!-- ROUTES&#45;&gt;AUTH -->
<g id="edge11" class="edge">
<title>ROUTES&#45;&gt;AUTH</title>
<path fill="none" stroke="black" stroke-width="1.5" d="M351.5,-637C395,-637 440.75,-637 440.75,-637 440.75,-637 440.75,-612.93 440.75,-592.07"/>
<polygon fill="black" stroke="black" stroke-width="1.5" points="443.55,-592 440.75,-584 437.95,-592 443.55,-592"/>
</g>
<!-- L1_anchor -->
<!-- L2_anchor -->
<!-- L1_anchor&#45;&gt;L2_anchor -->
<!-- CTRL -->
<g id="node7" class="node">
<title>CTRL</title>
<path fill="white" stroke="white" d="M772.5,-429C772.5,-429 654.5,-429 654.5,-429 648.5,-429 642.5,-423 642.5,-417 642.5,-417 642.5,-405 642.5,-405 642.5,-399 648.5,-393 654.5,-393 654.5,-393 772.5,-393 772.5,-393 778.5,-393 784.5,-399 784.5,-405 784.5,-405 784.5,-417 784.5,-417 784.5,-423 778.5,-429 772.5,-429"/>
<text text-anchor="middle" x="713.5" y="-408.2" font-family="Inter,Arial" font-size="11.00">AnalyzeError (Main Logic)</text>
</g>
<!-- AUTH&#45;&gt;CTRL -->
<g id="edge12" class="edge">
<title>AUTH&#45;&gt;CTRL</title>
<path fill="none" stroke="black" stroke-width="1.5" d="M610.5,-523C662.78,-523 713.5,-523 713.5,-523 713.5,-523 713.5,-491.78 713.5,-467.07"/>
<polygon fill="black" stroke="black" stroke-width="1.5" points="716.3,-467 713.5,-459 710.7,-467 716.3,-467"/>
<text text-anchor="middle" x="602.5" y="-470.8" font-family="Inter,Arial" font-size="14.00">JWT Validierung</text>
</g>
<!-- XSUAA -->
<g id="node16" class="node">
<title>XSUAA</title>
<path fill="#efe7d1" stroke="#efe7d1" d="M1312.5,-776C1312.5,-776 1256.5,-776 1256.5,-776 1250.5,-776 1244.5,-770 1244.5,-764 1244.5,-764 1244.5,-752 1244.5,-752 1244.5,-746 1250.5,-740 1256.5,-740 1256.5,-740 1312.5,-740 1312.5,-740 1318.5,-740 1324.5,-746 1324.5,-752 1324.5,-752 1324.5,-764 1324.5,-764 1324.5,-770 1318.5,-776 1312.5,-776"/>
<text text-anchor="middle" x="1284.5" y="-755.2" font-family="Inter,Arial" font-size="11.00">SAP XSUAA</text>
</g>
<!-- AUTH&#45;&gt;XSUAA -->
<g id="edge21" class="edge">
<title>AUTH&#45;&gt;XSUAA</title>
<path fill="none" stroke="#666666" stroke-dasharray="5,2" d="M546.25,-592.3C546.25,-644.96 546.25,-748 546.25,-748 546.25,-748 1236.28,-748 1236.28,-748"/>
<polygon fill="#666666" stroke="#666666" points="549.05,-592 546.25,-584 543.45,-592 549.05,-592"/>
<polygon fill="#666666" stroke="#666666" points="1236.28,-750.8 1244.28,-748 1236.28,-745.2 1236.28,-750.8"/>
<text text-anchor="middle" x="770.92" y="-751.8" font-family="Inter,Arial" font-size="14.00">Token/Scopes</text>
</g>
<!-- L3_anchor -->
<!-- L2_anchor&#45;&gt;L3_anchor -->
<!-- CB -->
<g id="node8" class="node">
<title>CB</title>
<path fill="white" stroke="white" d="M741.5,-318C741.5,-318 685.5,-318 685.5,-318 679.5,-318 673.5,-312 673.5,-306 673.5,-306 673.5,-294 673.5,-294 673.5,-288 679.5,-282 685.5,-282 685.5,-282 741.5,-282 741.5,-282 747.5,-282 753.5,-288 753.5,-294 753.5,-294 753.5,-306 753.5,-306 753.5,-312 747.5,-318 741.5,-318"/>
<text text-anchor="middle" x="713.5" y="-297.2" font-family="Inter,Arial" font-size="11.00">process&#45;local</text>
</g>
<!-- CTRL&#45;&gt;CB -->
<!-- CTRL&#45;&gt;CB -->
<g id="edge17" class="edge">
<title>CTRL&#45;&gt;CB</title>
<path fill="none" stroke="#cc0000" stroke-dasharray="5,2" d="M726.83,-385C726.83,-377.93 726.83,-366.97 726.83,-356.43"/>
<polygon fill="#cc0000" stroke="#cc0000" points="729.63,-356 726.83,-348 724.03,-356 729.63,-356"/>
<text text-anchor="middle" x="684.33" y="-374.51" font-family="Inter,Arial" font-size="14.00">check/register</text>
</g>
<!-- PROMPT -->
<g id="node10" class="node">
<title>PROMPT</title>
<path fill="white" stroke="white" d="M876,-318C876,-318 837,-318 837,-318 831,-318 825,-312 825,-306 825,-306 825,-294 825,-294 825,-288 831,-282 837,-282 837,-282 876,-282 876,-282 882,-282 888,-288 888,-294 888,-294 888,-306 888,-306 888,-312 882,-318 876,-318"/>
<text text-anchor="middle" x="856.5" y="-297.2" font-family="Inter,Arial" font-size="11.00">Mustache</text>
</g>
<!-- CTRL&#45;&gt;PROMPT -->
<g id="edge13" class="edge">
<title>CTRL&#45;&gt;PROMPT</title>
<path fill="none" stroke="black" stroke-width="1.5" d="M774.17,-385C774.17,-352.2 774.17,-300 774.17,-300 774.17,-300 795.99,-300 808.44,-300"/>
<polygon fill="black" stroke="black" stroke-width="1.5" points="808.5,-302.8 816.5,-300 808.5,-297.2 808.5,-302.8"/>
</g>
<!-- FALLBACK -->
<g id="node12" class="node">
<title>FALLBACK</title>
<path fill="white" stroke="white" d="M918,-68C918,-68 839,-68 839,-68 833,-68 827,-62 827,-56 827,-56 827,-44 827,-44 827,-38 833,-32 839,-32 839,-32 918,-32 918,-32 924,-32 930,-38 930,-44 930,-44 930,-56 930,-56 930,-62 924,-68 918,-68"/>
<text text-anchor="middle" x="878.5" y="-47.2" font-family="Inter,Arial" font-size="11.00">deterministic rules</text>
</g>
<!-- CB&#45;&gt;FALLBACK -->
<g id="edge18" class="edge">
<title>CB&#45;&gt;FALLBACK</title>
<path fill="none" stroke="#cc0000" stroke-dasharray="5,2" d="M713.5,-274C713.5,-208.89 713.5,-44 713.5,-44 713.5,-44 785.59,-44 810.44,-44"/>
<polygon fill="#cc0000" stroke="#cc0000" points="810.5,-46.8 818.5,-44 810.5,-41.2 810.5,-46.8"/>
<text text-anchor="middle" x="698" y="-114.33" font-family="Inter,Arial" font-size="14.00">open</text>
</g>
<!-- L4_anchor -->
<!-- L3_anchor&#45;&gt;L4_anchor -->
<!-- OAI_CLIENT -->
<g id="node11" class="node">
<title>OAI_CLIENT</title>
<path fill="white" stroke="white" d="M931.5,-193C931.5,-193 845.5,-193 845.5,-193 839.5,-193 833.5,-187 833.5,-181 833.5,-181 833.5,-169 833.5,-169 833.5,-163 839.5,-157 845.5,-157 845.5,-157 931.5,-157 931.5,-157 937.5,-157 943.5,-163 943.5,-169 943.5,-169 943.5,-181 943.5,-181 943.5,-187 937.5,-193 931.5,-193"/>
<text text-anchor="middle" x="888.5" y="-172.2" font-family="Inter,Arial" font-size="11.00">Responses API call</text>
</g>
<!-- PROMPT&#45;&gt;OAI_CLIENT -->
<!-- PROMPT&#45;&gt;OAI_CLIENT -->
<g id="edge14" class="edge">
<title>PROMPT&#45;&gt;OAI_CLIENT</title>
<path fill="none" stroke="black" stroke-width="1.5" d="M869.83,-274C869.83,-264.13 869.83,-246.57 869.83,-231.17"/>
<polygon fill="black" stroke="black" stroke-width="1.5" points="872.63,-231 869.83,-223 867.03,-231 872.63,-231"/>
<text text-anchor="middle" x="935.5" y="-234.8" font-family="Inter,Arial" font-size="14.00">LLM Anfrage</text>
</g>
<!-- OAI_CLIENT&#45;&gt;FALLBACK -->
<!-- OAI_CLIENT&#45;&gt;FALLBACK -->
<g id="edge19" class="edge">
<title>OAI_CLIENT&#45;&gt;FALLBACK</title>
<path fill="none" stroke="#cc0000" stroke-dasharray="5,2" d="M897.83,-149C897.83,-139.13 897.83,-121.57 897.83,-106.17"/>
<polygon fill="#cc0000" stroke="#cc0000" points="900.63,-106 897.83,-98 895.03,-106 900.63,-106"/>
<text text-anchor="middle" x="858.83" y="-131.39" font-family="Inter,Arial" font-size="14.00">timeout/error</text>
</g>
<!-- AJV -->
<g id="node14" class="node">
<title>AJV</title>
<path fill="white" stroke="white" d="M1190.5,-68C1190.5,-68 1102.5,-68 1102.5,-68 1096.5,-68 1090.5,-62 1090.5,-56 1090.5,-56 1090.5,-44 1090.5,-44 1090.5,-38 1096.5,-32 1102.5,-32 1102.5,-32 1190.5,-32 1190.5,-32 1196.5,-32 1202.5,-38 1202.5,-44 1202.5,-44 1202.5,-56 1202.5,-56 1202.5,-62 1196.5,-68 1190.5,-68"/>
<text text-anchor="middle" x="1146.5" y="-47.2" font-family="Inter,Arial" font-size="11.00">AJV JSON Schema</text>
</g>
<!-- OAI_CLIENT&#45;&gt;AJV -->
<g id="edge15" class="edge">
<title>OAI_CLIENT&#45;&gt;AJV</title>
<path fill="none" stroke="black" stroke-width="1.5" d="M936.75,-149C936.75,-112.37 936.75,-50 936.75,-50 936.75,-50 1082.29,-50 1082.29,-50"/>
<polygon fill="black" stroke="black" stroke-width="1.5" points="1074.5,-52.8 1082.5,-50 1074.5,-47.2 1074.5,-52.8"/>
<text text-anchor="middle" x="997" y="-109.8" font-family="Inter,Arial" font-size="14.00">Structured Guidance</text>
</g>
<!-- OPENAI -->
<g id="node17" class="node">
<title>OPENAI</title>
<path fill="#efe7d1" stroke="#efe7d1" d="M1364,-554C1364,-554 1257,-554 1257,-554 1251,-554 1245,-548 1245,-542 1245,-542 1245,-530 1245,-530 1245,-524 1251,-518 1257,-518 1257,-518 1364,-518 1364,-518 1370,-518 1376,-524 1376,-530 1376,-530 1376,-542 1376,-542 1376,-548 1370,-554 1364,-554"/>
<text text-anchor="middle" x="1310.5" y="-533.2" font-family="Inter,Arial" font-size="11.00">OpenAI Responses API</text>
</g>
<!-- OAI_CLIENT&#45;&gt;OPENAI -->
<g id="edge22" class="edge">
<title>OAI_CLIENT&#45;&gt;OPENAI</title>
<path fill="none" stroke="#666666" stroke-dasharray="5,2" d="M915.75,-231.32C915.75,-312.51 915.75,-529 915.75,-529 915.75,-529 1236.87,-529 1236.87,-529"/>
<polygon fill="#666666" stroke="#666666" points="918.55,-231 915.75,-223 912.95,-231 918.55,-231"/>
<polygon fill="#666666" stroke="#666666" points="1236.87,-531.8 1244.87,-529 1236.87,-526.2 1236.87,-531.8"/>
<text text-anchor="middle" x="904.97" y="-532.8" font-family="Inter,Arial" font-size="14.00">HTTPS</text>
</g>
<!-- FALLBACK&#45;&gt;CTRL -->
<g id="edge20" class="edge">
<title>FALLBACK&#45;&gt;CTRL</title>
<path fill="none" stroke="#cc0000" stroke-dasharray="5,2" d="M818.5,-56C790.75,-56 763.83,-56 763.83,-56 763.83,-56 763.83,-384.91 763.83,-384.91"/>
<polygon fill="#cc0000" stroke="#cc0000" points="761.04,-377 763.83,-385 766.64,-377 761.04,-377"/>
<text text-anchor="middle" x="740.83" y="-196.92" font-family="Inter,Arial" font-size="14.00">fallback</text>
</g>
<!-- L5_anchor -->
<!-- L4_anchor&#45;&gt;L5_anchor -->
<!-- AJV&#45;&gt;CPI -->
<g id="edge16" class="edge">
<title>AJV&#45;&gt;CPI</title>
<path fill="none" stroke="black" stroke-width="1.5" d="M1146.5,-98C1146.5,-273.89 1146.5,-873 1146.5,-873 1146.5,-873 75.11,-873 75.11,-873"/>
<polygon fill="black" stroke="black" stroke-width="1.5" points="75.11,-870.2 67.11,-873 75.11,-875.8 75.11,-870.2"/>
<text text-anchor="middle" x="966.31" y="-876.8" font-family="Inter,Arial" font-size="14.00">200 JSON</text>
</g>
</g>
</svg>
